<?xml version="1.0" encoding="utf-8"?>
<!-- Generator: Adobe Illustrator 24.0.1, SVG Export Plug-In . SVG Version: 6.00 Build 0)  -->
<svg version="1.1" id="Livello_1" xmlns="http://www.w3.org/2000/svg" xmlns:xlink="http://www.w3.org/1999/xlink" x="0px" y="0px"
	 viewBox="0 0 21.9 25" style="enable-background:new 0 0 21.9 25;" xml:space="preserve">
<title>icon-bell-white</title>
<desc>Created with Sketch.</desc>
<g id="Symbols">
	<g id="Alert--info" transform="translate(-31.000000, -30.000000)">
		<g id="icon-bell-white">
			<path d="M51.3,50.3c0.9,0,1.6-0.8,1.6-1.6c0-0.4-0.1-0.7-0.4-1.1c-0.9-1-2.7-2.5-2.7-7.5c0-3.8-2.7-6.8-6.2-7.6v-1
				c0-0.9-0.7-1.6-1.6-1.6c-0.9,0-1.6,0.7-1.6,1.6v1c-3.6,0.7-6.2,3.8-6.2,7.6c0,5-1.8,6.5-2.7,7.5C31.1,48,31,48.4,31,48.8
				c0,0.8,0.6,1.6,1.6,1.6H51.3z M41.9,55c1.7,0,3.1-1.4,3.1-3.1h-6.2C38.8,53.6,40.2,55,41.9,55z"/>
		</g>
	</g>
</g>
</svg>
