<?xml version="1.0" encoding="utf-8"?>
<!-- Generator: Adobe Illustrator 24.0.1, SVG Export Plug-In . SVG Version: 6.00 Build 0)  -->
<svg version="1.1" id="Livello_1" xmlns="http://www.w3.org/2000/svg" xmlns:xlink="http://www.w3.org/1999/xlink" x="0px" y="0px"
	 viewBox="0 0 25 22.2" style="enable-background:new 0 0 25 22.2;" xml:space="preserve">
<path d="M17.5,3.7l3.9,3.9c0.2,0.2,0.2,0.4,0,0.6l-9.5,9.5l-4,0.4c-0.5,0.1-1-0.4-0.9-0.9l0.4-4l9.5-9.5C17,3.5,17.3,3.5,17.5,3.7
	L17.5,3.7z M24.5,2.7l-2.1-2.1c-0.7-0.7-1.7-0.7-2.4,0l-1.5,1.5c-0.2,0.2-0.2,0.4,0,0.6l3.9,3.9c0.2,0.2,0.4,0.2,0.6,0l1.5-1.5
	C25.2,4.4,25.2,3.3,24.5,2.7z M16.7,15.1v4.4H2.8V5.6h10c0.1,0,0.3-0.1,0.4-0.2l1.7-1.7c0.3-0.3,0.1-0.9-0.4-0.9H2.1
	C0.9,2.8,0,3.8,0,4.9v15.3c0,1.2,0.9,2.1,2.1,2.1h15.3c1.2,0,2.1-0.9,2.1-2.1v-6.8c0-0.5-0.6-0.7-0.9-0.4l-1.7,1.7
	C16.7,14.8,16.7,14.9,16.7,15.1z"/>
</svg>
