<?xml version="1.0" encoding="utf-8"?>
<!-- Generator: Adobe Illustrator 24.0.1, SVG Export Plug-In . SVG Version: 6.00 Build 0)  -->
<svg version="1.1" id="Livello_1" xmlns="http://www.w3.org/2000/svg" xmlns:xlink="http://www.w3.org/1999/xlink" x="0px" y="0px"
	 viewBox="0 0 25 22.2" style="enable-background:new 0 0 25 22.2;" xml:space="preserve">
<path d="M24.8,10.5c-2.4-4.6-7-7.7-12.3-7.7s-10,3.1-12.3,7.7c-0.2,0.4-0.2,0.9,0,1.3c2.4,4.6,7,7.7,12.3,7.7s10-3.1,12.3-7.7
	C25.1,11.3,25.1,10.9,24.8,10.5z M12.5,17.4c-3.5,0-6.3-2.8-6.3-6.3S9,4.9,12.5,4.9s6.3,2.8,6.3,6.3C18.8,14.6,16,17.4,12.5,17.4
	C12.5,17.4,12.5,17.4,12.5,17.4z M12.5,6.9c-0.4,0-0.7,0.1-1.1,0.2C12.1,8,11.9,9.3,11,10c-0.7,0.5-1.7,0.5-2.5,0
	c-0.6,2.2,0.7,4.5,2.9,5.1c2.2,0.6,4.5-0.7,5.1-2.9s-0.7-4.5-2.9-5.1C13.2,7,12.9,6.9,12.5,6.9z"/>
</svg>
