<?xml version="1.0" encoding="utf-8"?>
<!-- Generator: Adobe Illustrator 24.0.1, SVG Export Plug-In . SVG Version: 6.00 Build 0)  -->
<svg version="1.1" id="Livello_1" xmlns="http://www.w3.org/2000/svg" xmlns:xlink="http://www.w3.org/1999/xlink" x="0px" y="0px"
	 viewBox="0 0 22.7 22.7" style="enable-background:new 0 0 22.7 22.7;" xml:space="preserve">
<path d="M21.4,6.5H1.3C0.6,6.5,0.1,6,0.1,5.3v0C0.1,4.6,0.6,4,1.3,4h20.1c0.7,0,1.2,0.6,1.2,1.2v0C22.6,6,22.1,6.5,21.4,6.5z"/>
<path d="M21.4,13.1H1.3c-0.7,0-1.2-0.6-1.2-1.2v0c0-0.7,0.6-1.2,1.2-1.2h20.1c0.7,0,1.2,0.6,1.2,1.2v0
	C22.6,12.5,22.1,13.1,21.4,13.1z"/>
<path d="M21.4,19.7H1.3c-0.7,0-1.2-0.6-1.2-1.2v0c0-0.7,0.6-1.2,1.2-1.2h20.1c0.7,0,1.2,0.6,1.2,1.2v0
	C22.6,19.1,22.1,19.7,21.4,19.7z"/>
</svg>
