<?xml version="1.0" encoding="UTF-8"?>
<svg width="16px" height="13px" viewBox="0 0 16 13" version="1.1" xmlns="http://www.w3.org/2000/svg" xmlns:xlink="http://www.w3.org/1999/xlink">
    <!-- Generator: Sketch 63.1 (92452) - https://sketch.com -->
    <title>icon-home</title>
    <desc>Created with Sketch.</desc>
    <g id="Symbols" stroke="none" stroke-width="1"  fill-rule="evenodd">
        <g id="Sidebar-light" transform="translate(-27.000000, -181.000000)"  fill-rule="nonzero">
            <g transform="translate(0.000000, 0.000000)" id="nav">
                <g transform="translate(17.000000, 171.000000)">
                    <g id="li-copy">
                        <path d="M24.7259628,18.055807 C24.8112249,18.055807 24.9245517,18.0024548 24.9788652,17.9367391 L25.6761292,17.0890849 C25.7173316,17.038937 25.7507635,16.9456107 25.7507635,16.8807228 C25.7507635,16.7945528 25.6965034,16.6805051 25.6296396,16.6261381 L23.3437182,14.7418806 L23.3437182,10.9545132 C23.3437182,10.773388 23.1967192,10.626389 23.015594,10.626389 L21.4843476,10.626389 C21.3032224,10.626389 21.1562234,10.773388 21.1562234,10.9545132 L21.1562234,12.9399477 L18.7081358,10.9258077 C18.5075443,10.7607575 18.1339451,10.6267895 17.8741534,10.6267895 C17.6143884,10.6267895 17.2407626,10.7607575 17.0401711,10.9258077 L10.1186673,16.6261381 C10.0529517,16.6804784 9.99959946,16.7937784 9.99959946,16.8790672 C9.99959946,16.9442755 10.0333518,17.0380024 10.0749281,17.0882571 L10.7721921,17.9359113 C10.8265323,18.0019741 10.9400727,18.0556201 11.0256018,18.0556201 C11.09073,18.0556201 11.1843501,18.0219478 11.2345781,17.9804783 L17.6663521,12.6829064 C17.7169005,12.6421579 17.8106007,12.6090998 17.8755153,12.6090998 C17.9404565,12.6090998 18.0341567,12.6421579 18.0847052,12.6829064 L24.5167729,17.9804783 C24.5670009,18.0220546 24.6607278,18.055807 24.7259628,18.055807 Z M22.6874698,22.8749979 C22.92897,22.8749979 23.1249687,22.6789992 23.1249687,22.437499 L23.1249687,17.9531346 L18.0847052,13.8039975 C18.0341567,13.763249 17.9404565,13.7301909 17.8755153,13.7301909 C17.8106007,13.7301909 17.7169005,13.763249 17.6663521,13.8039975 L12.6249937,17.9561521 L12.6249937,22.437499 C12.6249937,22.6789992 12.8209924,22.8749979 13.0624927,22.8749979 L16.1266143,22.8670672 C16.3669129,22.8658656 16.5619503,22.6698669 16.5619503,22.4295682 L16.5619503,19.8125052 C16.5619503,19.5710049 16.757949,19.3750063 16.9994493,19.3750063 L18.7494451,19.3750063 C18.9909187,19.3750063 19.186944,19.5710049 19.186944,19.8125052 L19.1869173,22.4290342 L19.1869173,22.4290342 C19.1869173,22.6437011 19.3417805,22.8224161 19.5458079,22.8594804 L19.624443,22.8665331 L22.6874698,22.8749979 Z" id="icon-home"></path>
                    </g>
                </g>
            </g>
        </g>
    </g>
</svg>