<?xml version="1.0" encoding="UTF-8"?>
<svg width="19px" height="15px" viewBox="0 0 19 15" version="1.1" xmlns="http://www.w3.org/2000/svg" xmlns:xlink="http://www.w3.org/1999/xlink">
    <!-- Generator: Sketch 63.1 (92452) - https://sketch.com -->
    <title>icon-layuts</title>
    <desc>Created with Sketch.</desc>
    <g id="Symbols" stroke="none" stroke-width="1"  fill-rule="evenodd">
        <g id="Sidebar-light" transform="translate(-26.000000, -424.000000)" fill-rule="nonzero">
            <g transform="translate(0.000000, 0.000000)" id="nav">
                <g transform="translate(17.000000, 171.000000)">
                    <g id="li" transform="translate(9.976744, 251.000000)">
                        <path d="M15.7499624,13.2500042 L15.7499624,4.06252608 C15.7499624,3.34064212 15.1593495,2.75002921 14.4374656,2.75002921 L3.0624927,2.75002921 C2.34060874,2.75002921 1.74999583,3.34064212 1.74999583,4.06252608 L1.74999583,13.2500042 L15.7499624,13.2500042 Z M13.9999666,11.5000083 L3.49999166,11.5000083 L3.49999166,4.50002503 L13.9999666,4.50002503 L13.9999666,11.5000083 Z M7.5922518,9.90451502 L7.90149712,9.59524299 C8.07239515,9.42434496 8.07239515,9.14735664 7.90149712,8.97645861 L6.92478818,8.00001669 L7.90123009,7.02330774 C8.07212812,6.85240971 8.07212812,6.57542139 7.90123009,6.40452336 L7.59198477,6.09525133 C7.42108674,5.9243533 7.14407171,5.9243533 6.97317368,6.09525133 L5.37794738,7.69047763 C5.20704935,7.86137566 5.20704935,8.13836399 5.37794738,8.30926202 L6.97346741,9.90451502 C7.14436544,10.075413 7.42135377,10.075413 7.5922518,9.90451502 Z M10.5267846,9.90478205 L12.1220109,8.30955575 C12.2929089,8.13865772 12.2929089,7.86166939 12.1220109,7.69077136 L10.5267846,6.09551836 C10.3558866,5.92462033 10.0788715,5.92462033 9.90797351,6.09551836 L9.59872818,6.40479039 C9.42783015,6.57568842 9.42783015,6.85267674 9.59872818,7.02357477 L10.5751701,8.00001669 L9.59872818,8.97672563 C9.42783015,9.14762366 9.42783015,9.42461199 9.59872818,9.59551002 L9.90797351,9.90478205 C10.0788715,10.0756801 10.3558866,10.0756801 10.5267846,9.90478205 Z M15.7499624,16.7499958 C16.7124655,16.7499958 17.4999583,15.962503 17.4999583,15 L17.4999583,14.562501 C17.4999583,14.321882 17.3030784,14.1250021 17.0624593,14.1250021 L10.4327106,14.1250021 C10.4124698,14.6666687 10.030486,15 9.53747192,15 L7.87498122,15 C7.36391601,15 6.97210557,14.5223133 6.97894149,14.1250021 L0.437498957,14.1250021 C0.196879871,14.1250021 0,14.321882 0,14.562501 L0,15 C0,15.962503 0.787492782,16.7499958 1.74999583,16.7499958 L15.7499624,16.7499958 Z" id="icon-layuts"></path>
                    </g>
                </g>
            </g>
        </g>
    </g>
</svg>