<?xml version="1.0" encoding="UTF-8"?>
<svg width="18px" height="15px" viewBox="0 0 18 15" version="1.1" xmlns="http://www.w3.org/2000/svg" xmlns:xlink="http://www.w3.org/1999/xlink">
    <!-- Generator: Sketch 63.1 (92452) - https://sketch.com -->
    <title>icon-otherpages</title>
    <desc>Created with Sketch.</desc>
    <g id="Symbols" stroke="none" stroke-width="1"  fill-rule="evenodd">
        <g id="Sidebar-light" transform="translate(-27.000000, -591.000000)" fill-rule="nonzero">
            <g transform="translate(0.000000, 0.000000)" id="nav">
                <g transform="translate(17.000000, 171.000000)">
                    <g id="li-copy-2" transform="translate(10.000000, 418.000000)">
                        <path d="M5.4927962,11.5011032 C5.79632712,10.9799443 6.35468303,10.6250104 6.99998331,10.6250104 L7.00764702,10.6250104 L5.24998748,7.54911292 L5.24998748,6.25002921 L11.3749729,6.25002921 L11.3749729,4.50002503 L5.24998748,4.50002503 L5.24998748,3.62502712 C5.24998748,3.14186635 4.85815034,2.75002921 4.37498957,2.75002921 L0.874997914,2.75002921 C0.39183714,2.75002921 0,3.14186635 0,3.62502712 L0,7.12501878 C0,7.60817955 0.39183714,8.00001669 0.874997914,8.00001669 L3.49232795,8.00001669 L5.4927962,11.5011032 Z M16.6249604,8.00001669 C17.1081211,8.00001669 17.4999583,7.60817955 17.4999583,7.12501878 L17.4999583,3.62502712 C17.4999583,3.14186635 17.1081211,2.75002921 16.6249604,2.75002921 L13.1249687,2.75002921 C12.6418079,2.75002921 12.2499708,3.14186635 12.2499708,3.62502712 L12.2499708,7.12501878 C12.2499708,7.60817955 12.6418079,8.00001669 13.1249687,8.00001669 L16.6249604,8.00001669 Z M10.499975,16.7499958 C10.9831357,16.7499958 11.3749729,16.3581587 11.3749729,15.8749979 L11.3749729,12.3750063 C11.3749729,11.8918455 10.9831357,11.5000083 10.499975,11.5000083 L6.99998331,11.5000083 C6.51682254,11.5000083 6.1249854,11.8918455 6.1249854,12.3750063 L6.1249854,15.8749979 C6.1249854,16.3581587 6.51682254,16.7499958 6.99998331,16.7499958 L10.499975,16.7499958 Z" id="icon-otherpages"></path>
                    </g>
                </g>
            </g>
        </g>
    </g>
</svg>