<?xml version="1.0" encoding="UTF-8"?>
<svg width="16px" height="14px" viewBox="0 0 16 14" version="1.1" xmlns="http://www.w3.org/2000/svg" xmlns:xlink="http://www.w3.org/1999/xlink">
    <!-- Generator: Sketch 63.1 (92452) - https://sketch.com -->
    <title>icon-refine</title>
    <desc>Created with Sketch.</desc>
    <g id="Symbols" stroke="none" stroke-width="1"  fill-rule="evenodd">
        <g id="Table-header" transform="translate(-22.000000, -20.000000)"  fill-rule="nonzero">
            <g transform="translate(22.000000, 0.000000)" id="Filtra-risultati">
                <g transform="translate(0.000000, 18.000000)">
                    <path d="M8.49997973,6.00003099 C8.77497298,6.00003099 8.99997854,5.77501589 8.99997854,5.50003099 L8.99997854,5.00003099 L15.499963,5.00003099 C15.7749563,5.00003099 15.9999619,4.77501827 15.9999619,4.50003099 L15.9999619,3.50003099 C15.9999619,3.22503418 15.7749563,3.00003099 15.499963,3.00003099 L8.99997854,3.00003099 L8.99997854,2.50003099 C8.99997854,2.22503656 8.77497298,2.00003099 8.49997973,2.00003099 L7.49998212,2.00003099 C7.22498888,2.00003099 6.99998331,2.22503656 6.99998331,2.50003099 L6.99998331,3.00003099 L0.5,3.00003099 C0.225005567,3.00003099 0,3.22503418 0,3.50003099 L0,4.50003099 C0,4.77501827 0.225005567,5.00003099 0.5,5.00003099 L6.99998331,5.00003099 L6.99998331,5.50003099 C6.99998331,5.77501589 7.22498888,6.00003099 7.49998212,6.00003099 L8.49997973,6.00003099 Z M12.4999702,11.0000191 C12.7749634,11.0000191 12.999969,10.775004 12.999969,10.5000191 L12.999969,10.0000191 L15.499963,10.0000191 C15.7749563,10.0000191 15.9999619,9.77500635 15.9999619,9.50001907 L15.9999619,8.50001907 C15.9999619,8.22502226 15.7749563,8.00001907 15.499963,8.00001907 L12.999969,8.00001907 L12.999969,7.50001907 C12.999969,7.22502464 12.7749634,7.00001907 12.4999702,7.00001907 L11.4999726,7.00001907 C11.2249793,7.00001907 10.9999738,7.22502464 10.9999738,7.50001907 L10.9999738,8.00001907 L0.5,8.00001907 C0.225005567,8.00001907 0,8.22502226 0,8.50001907 L0,9.50001907 C0,9.77500635 0.225005567,10.0000191 0.5,10.0000191 L10.9999738,10.0000191 L10.9999738,10.5000191 C10.9999738,10.775004 11.2249793,11.0000191 11.4999726,11.0000191 L12.4999702,11.0000191 Z M4.49998927,16.0000072 C4.77498251,16.0000072 4.99998808,15.774992 4.99998808,15.5000072 L4.99998808,15.0000072 L15.499963,15.0000072 C15.7749563,15.0000072 15.9999619,14.7749944 15.9999619,14.5000072 L15.9999619,13.5000072 C15.9999619,13.2250103 15.7749563,13.0000072 15.499963,13.0000072 L4.99998808,13.0000072 L4.99998808,12.5000072 C4.99998808,12.2250127 4.77498251,12.0000072 4.49998927,12.0000072 L3.5,12.0000072 C3.22499841,12.0000072 3,12.2250127 3,12.5000072 L3,13.0000072 L0.5,13.0000072 C0.225005567,13.0000072 0,13.2250103 0,13.5000072 L0,14.5000072 C0,14.7749944 0.225005567,15.0000072 0.5,15.0000072 L3,15.0000072 L3,15.5000072 C3,15.774992 3.22499841,16.0000072 3.5,16.0000072 L4.49998927,16.0000072 Z" id="icon-refine"></path>
                </g>
            </g>
        </g>
    </g>
</svg>