<?xml version="1.0" encoding="UTF-8"?>
<svg width="17px" height="16px" viewBox="0 0 17 16" version="1.1" xmlns="http://www.w3.org/2000/svg" xmlns:xlink="http://www.w3.org/1999/xlink">
    <!-- Generator: Sketch 63.1 (92452) - https://sketch.com -->
    <title>icon-search</title>
    <desc>Created with Sketch.</desc>
    <g id="Symbols" stroke="none" stroke-width="1" fill-rule="evenodd">
        <g id="Table-header" transform="translate(-168.000000, -19.000000)" fill-rule="nonzero">
            <g transform="translate(22.000000, 0.000000)" id="search-anything">
                <g transform="translate(146.000000, 17.000000)">
                    <path d="M15.1010907,17.7812458 L15.985488,16.896879 C16.279219,16.6031175 16.279219,16.1281125 15.9886008,15.8343815 L12.8729771,12.7187578 C12.7323525,12.5781332 12.5417401,12.5000083 12.3417284,12.5000083 L11.8323607,12.5000083 C12.6948465,11.3968921 13.2073574,10.0093832 13.2073574,8.50001788 C13.2073574,4.90938924 10.2980016,2.00003338 6.70737294,2.00003338 C3.11674429,2.00003338 0.207388436,4.90938924 0.207388436,8.50001788 C0.207388436,12.0906465 3.11674429,15.0000024 6.70737294,15.0000024 C8.21673824,15.0000024 9.60424714,14.4874914 10.7073634,13.6250057 L10.7073634,14.1343733 C10.7073634,14.3343851 10.7854882,14.5249974 10.9261129,14.6656221 L14.0417366,17.7812458 C14.3354675,18.0750073 14.8104725,18.0750073 15.1010907,17.7812458 Z M6.70738248,12.5000083 C4.4979971,12.5000083 2.70738248,10.7125065 2.70738248,8.50002742 C2.70738248,6.29064205 4.49488432,4.50002742 6.70738248,4.50002742 C8.91674877,4.50002742 10.7073634,6.28752926 10.7073634,8.50002742 C10.7073634,10.7093937 8.91986156,12.5000083 6.70738248,12.5000083 Z" id="icon-search"></path>
                </g>
            </g>
        </g>
    </g>
</svg>