<?xml version="1.0" encoding="utf-8"?>
<!-- Generator: Adobe Illustrator 24.0.1, SVG Export Plug-In . SVG Version: 6.00 Build 0)  -->
<svg version="1.1" id="Livello_1" xmlns="http://www.w3.org/2000/svg" xmlns:xlink="http://www.w3.org/1999/xlink" x="0px" y="0px"
	 viewBox="0 0 49.3 54" style="enable-background:new 0 0 49.3 54;" xml:space="preserve">
<style type="text/css">
	.st0{fill:#2B388F;}
	.st1{fill:#F05A28;}
</style>
<title>bemo-logo_vertical-bianco</title>
<desc>Created with Sketch.</desc>
<g id="Brand_x2F_Wordmark-T" transform="translate(-1.000000, -1.000000)">
	<g id="bemo-logo_vertical-bianco" transform="translate(-1.000000, -14.000000)">
		<path id="Shape" class="st0" d="M42.3,25.7v35.6H7.7V25.7H42.3 M44,24H6v39h38V24L44,24z"/>
		<g id="Group" transform="translate(0.492958, 0.353448)">
			<path id="T" class="st1" d="M25.6,68.1c0.1,0,0.2-0.1,0.3-0.2s0.2-0.2,0.2-0.3c-0.2-0.3-0.4-0.4-0.6-0.4c0.1-0.1,0.3-0.3,0.6-0.6
				s0.5-0.7,0.8-1c0.3-0.4,0.5-0.7,0.7-1s0.3-0.6,0.3-0.7c0-0.2,0-0.4-0.1-0.5s-0.1-0.1-0.2-0.2s-0.1-0.1-0.2-0.2s-0.1-0.2-0.1-0.5
				c0-0.2,0-0.5,0-0.9s0-0.8-0.1-1.3c0-0.5-0.1-0.9-0.1-1.4s-0.1-0.7-0.1-0.9c0.1-0.1,0.2-0.3,0.2-0.6s0.1-0.5,0.1-0.8
				s0.1-0.5,0.2-0.6s0.3-0.3,0.5-0.3c0.1,0,0.3,0,0.4,0.1l0,0l2-2.1c-0.1,0-0.3,0-0.5,0.1s-0.3,0.1-0.4,0.1c-0.4,0-0.8-0.2-1.1-0.7
				c-0.4-0.5-0.6-0.9-0.6-1.3c0-0.1,0.1-0.2,0.2-0.3s0.3-0.2,0.4-0.2l0,0v-2c0.1,0,0.3-0.1,0.5-0.4c0.2-0.3,0.5-0.6,0.8-0.9
				c0.3-0.4,0.5-0.7,0.8-1c0.2-0.3,0.4-0.6,0.6-0.7c-0.1,0-0.3,0.1-0.5,0.2c-0.2,0.1-0.3,0.2-0.4,0.2c-0.8-0.2-1.4-0.6-1.7-1.3
				s-0.5-1.4-0.5-2l0,0h0.1c0,0,0.1,0,0.1,0l0,0c0,0,0,0,0.1,0c0.2,0,0.4,0.2,0.6,0.5c0.2,0.3,0.5,0.5,0.6,0.5c0,0,0.1,0,0.1-0.1
				l0,0l0.3-2.5c-0.2-0.1-0.3-0.4-0.4-0.6s-0.1-0.6-0.1-0.8s0-0.5-0.1-0.7s-0.1-0.3-0.3-0.4l0,0v0.3c0,0.2,0,0.4-0.1,0.6
				s-0.1,0.4-0.2,0.6c-0.1,0.2-0.2,0.3-0.4,0.3c-0.1,0-0.2,0-0.3-0.1s-0.1-0.2-0.2-0.2c0-0.2,0.1-0.4,0.1-0.6s0.1-0.5,0.2-0.6
				s0.2-0.4,0.2-0.6c0,0-0.1-0.2-0.4-0.4c-0.1-0.1-0.3-0.2-0.4-0.2c0.2-0.2,0.5-0.4,0.6-0.6s0.3-0.5,0.3-0.7c0,0-0.1,0-0.1-0.1l0,0
				v-0.3c0,0.1-0.1,0.2-0.3,0.2s-0.2,0.1-0.3,0.1l0,0v-0.1c0,0,0-0.2-0.1-0.3s-0.1-0.3-0.1-0.4c0,0,0,0,0.1,0l0.2-0.1
				c0.2-0.1,0.4-0.3,0.6-0.4s0.5-0.3,0.7-0.4c0.2-0.1,0.4-0.2,0.5-0.3c0-0.1-0.1-0.4-0.1-0.6c0-0.6,0.1-1.1,0.2-1.5s0.2-1,0.2-1.6
				c0-0.5-0.1-1-0.2-1.4c-0.1-0.4-0.2-0.8-0.2-1.2c0-0.3,0.2-0.7,0.6-1.3c0.4-0.6,0.7-0.9,1-0.9c0,0,0.2,0.1,0.3,0.2
				s0.3,0.2,0.4,0.3l0,0h2.6c0.1-0.6,0.4-1,0.9-1.3c0.2,0.1,0.3,0.3,0.4,0.5c0.1,0.2,0.2,0.4,0.3,0.4c0.3,0,0.6-0.2,0.6-0.6
				c0.1-0.4,0.3-0.6,0.7-0.6c0.3,0,0.6,0.1,0.9,0.3s0.5,0.3,0.9,0.3c0,0,0.1,0,0.3-0.1l0.1-0.1c0.1-0.1,0.2-0.1,0.2-0.1
				c0.1,0,0.4-0.1,0.8-0.2s0.9-0.2,1.4-0.3s1-0.2,1.4-0.3s0.6-0.1,0.7-0.1l0,0v0.6c0.5,0,1-0.1,1.4-0.4s0.8-0.4,1.2-0.5
				c0.2,0,0.3,0,0.5,0.1c0.1,0.1,0.3,0.1,0.7,0.1c0.7,0,1-0.1,1.1-0.2c0.1-0.1,0.1-0.4,0.1-0.9c0-0.4-0.1-0.8-0.4-1S48,22.1,47.7,22
				s-0.6-0.2-0.8-0.3s-0.4-0.3-0.4-0.6c0-0.4-0.1-0.9-0.2-1.4c-0.1-0.5-0.4-0.8-0.8-0.8c-0.1,0-0.2,0.1-0.4,0.3s-0.3,0.3-0.4,0.3
				c-0.2,0-0.4-0.1-0.6-0.3c-0.2-0.2-0.4-0.4-0.7-0.5c0.7-0.2,1.1-0.6,1.4-1.2c0.2-0.6,0.4-1.1,0.4-1.8c-0.2,0-0.4,0-0.7,0.1
				c-0.3,0.1-0.4,0.2-0.4,0.3c0,0.1,0.1,0.3,0.2,0.4c0.1,0.1,0.2,0.3,0.2,0.4c0,0.2-0.1,0.4-0.3,0.5s-0.5,0.3-0.7,0.5
				c-0.3,0.1-0.5,0.3-0.7,0.4s-0.3,0.3-0.3,0.4c0,0.2,0.1,0.3,0.3,0.3s0.3,0.1,0.3,0.3c0,0.4-0.3,0.6-0.8,0.6
				c-0.6,0-0.9-0.2-0.9-0.7c0-0.1,0-0.4,0.1-0.6c0,0-0.1,0.1-0.3,0.2S40.8,19,40.7,19c-0.2,0-0.4-0.2-0.4-0.6c0-0.1,0-0.3,0-0.4
				s0-0.2,0-0.2c0,0,0.1,0.1,0.3,0.2s0.2,0.1,0.3,0.1c0.2,0,0.6-0.1,1-0.4c0.5-0.3,0.7-0.6,0.7-0.9c0-0.2-0.2-0.5-0.5-0.6
				c-0.3-0.2-0.6-0.3-0.8-0.3c-0.4,0-0.9,0.2-1.5,0.6c-0.6,0.4-1,0.6-1.3,0.6l0,0v-2.2c0,0-0.2,0.1-0.5,0.3s-0.6,0.5-0.9,0.8
				c-0.3,0.3-0.6,0.6-0.9,0.8s-0.4,0.4-0.4,0.5l0,0l-0.3-1.1h0.8c0-0.4-0.1-0.6-0.4-0.7s-0.5-0.1-0.8-0.1c-0.2,0-0.3,0.1-0.3,0.2
				s-0.1,0.3-0.1,0.6c0,0.2-0.2,0.5-0.4,0.8c-0.2,0.3-0.6,0.5-1.1,0.8c0,0.3,0.2,0.4,0.6,0.4c0.1,0,0.2,0,0.3,0l0.1,0
				c0.1,0,0.1,0,0.2,0l0,0v2.4c0,0.3-0.2,0.6-0.5,0.7c-0.3,0.1-0.6,0.2-0.8,0.2c-0.2,0-0.4-0.1-0.5-0.4c-0.1-0.3-0.3-0.6-0.3-1
				s-0.1-0.8-0.2-1.2s-0.1-0.8-0.1-1.1c0-0.1,0-0.3,0-0.4s0-0.2,0-0.3c-0.2-0.2-0.6-0.4-1.1-0.8c-0.5-0.3-1-0.5-1.5-0.5
				c0,0.4,0.1,0.6,0.4,0.8c0.2,0.1,0.4,0.4,0.4,0.9c0,0.4,0,0.8-0.1,1.2c-0.1,0.4-0.5,0.6-1.1,0.6c-0.2,0-0.3-0.1-0.3-0.3l0,0v-3.1
				l0.3-0.4c0-0.1-0.1-0.2-0.3-0.2l0,0h-0.3c-0.5,0.2-1,0.4-1.3,0.5c-0.3,0.1-0.6,0.1-0.8,0.1S26.1,16,26,16c-0.1,0-0.1,0.1-0.1,0.3
				c1.1,0,1.7,0.2,1.9,0.5s0.3,1,0.3,2c0,0.3,0,0.6-0.1,1c-0.1,0.4-0.2,0.7-0.3,1c-0.1,0.3-0.3,0.6-0.6,0.8c-0.3,0.2-0.6,0.4-1,0.4
				c0-0.2,0-0.4,0-0.5s0-0.2,0-0.3c0-0.1,0.1-0.4,0.3-0.8l0,0h-0.1c-0.1,0-0.1-0.1-0.1-0.1c-0.3,0-0.6,0.1-0.7,0.4
				C25.2,20.9,25,21,24.7,21c0-0.3,0-0.6,0.1-0.8s0.1-0.5,0.1-0.8c0-0.1-0.1-0.2-0.2-0.2s-0.2-0.1-0.2-0.1c-0.2,0.2-0.4,0.5-0.5,0.9
				c-0.2,0.4-0.3,0.6-0.3,0.6c0,0,0,0,0.1-0.1c0,0,0.1,0.1,0.1,0.3s0.1,0.2,0.1,0.3c-0.1,0-0.3,0.1-0.6,0.1s-0.5,0.1-0.6,0.1
				c-0.2,0-0.3-0.1-0.4-0.3c-0.1-0.2-0.1-0.4-0.2-0.7s-0.1-0.5-0.2-0.7c-0.1-0.2-0.2-0.4-0.4-0.5c0,0.3-0.1,0.6-0.2,0.9
				s-0.3,0.6-0.7,0.8c0,0-0.1,0.1-0.3,0.3c-0.2,0.2-0.4,0.4-0.7,0.6l-0.2,0.2c-0.2,0.2-0.3,0.3-0.5,0.4c-0.2,0.2-0.3,0.3-0.3,0.3
				c0,0,0-0.2,0.1-0.5s0.1-0.6,0.1-1c0-0.4,0-0.7-0.1-0.9s-0.3-0.4-0.5-0.4c-0.1,0-0.3,0.1-0.6,0.4s-0.7,0.6-1,0.9l0.2-0.2l0,0l0,0
				l-0.2,0.2c-0.3,0.3-0.7,0.7-1.1,1.1l-0.3,0.3c-0.1,0-0.2-0.1-0.2-0.3c0-0.2-0.1-0.5-0.1-0.7s0-0.5,0-0.7s-0.1-0.3-0.2-0.3
				c0,0-0.2,0-0.3,0.1c-0.2,0.1-0.3,0.1-0.4,0.1c-0.2-0.1-0.4-0.3-0.6-0.6c-0.2-0.3-0.4-0.4-0.5-0.4c-0.3,0-0.5,0.1-0.5,0.4
				c0,0,0,0.1,0,0.1s0,0.1,0,0.1c0,0.1,0,0.3-0.1,0.4s-0.3,0.2-0.7,0.2c0.2,0,0.3,0.1,0.3,0.3c0,0.1,0,0.3,0,0.4
				c0,0.2,0,0.4-0.1,0.5s-0.3,0.2-0.5,0.2c0,0,0-0.2-0.1-0.5s-0.1-0.4-0.1-0.5c0-0.2,0.1-0.4,0.2-0.6s0.2-0.3,0.2-0.5
				c0-0.5-0.1-0.7-0.4-0.8c-0.3,0.3-0.5,0.5-0.7,0.7c-0.2,0.2-0.5,0.3-1,0.3c0.1-0.1,0.2-0.2,0.3-0.4s0.2-0.3,0.3-0.5l0,0l0.1-0.6
				H8.8c0,0.1,0,0.3-0.1,0.5c-0.1,0.2-0.2,0.3-0.5,0.3c-0.2,0-0.3-0.1-0.4-0.3c-0.1-0.2-0.2-0.4-0.3-0.5c-0.5,0.2-0.8,0.4-0.8,0.6
				c0,0.1,0,0.2,0,0.3s0,0.2,0,0.4c-0.4,0-0.7-0.1-0.9-0.2s-0.4-0.4-0.4-0.9l0,0l-2.6,0.2c-0.1,0-0.2,0.1-0.4,0.3
				c-0.1,0.2-0.2,0.4-0.2,0.5c0,0.2,0.1,0.5,0.2,0.8c0.1,0.3,0.2,0.6,0.2,1c0,0.1,0,0.2,0,0.3s0,0.2,0,0.2l0,0l-0.6,0.3
				c0.1,0,0.3,0.1,0.4,0.2c0.3,0.2,0.4,0.3,0.4,0.4l0,0v1.1l0.6-0.3c0.1,0.5,0.2,0.9,0.3,1.2c0.1,0.3,0.1,0.6,0.1,1.1
				c0,0.6-0.1,1-0.3,1.2c-0.2,0.2-0.4,0.3-0.6,0.3c-0.1,0-0.2,0-0.3,0l-0.1,0c-0.1,0-0.1,0-0.2,0c-0.2,0-0.4,0.1-0.4,0.4
				c0,0.5,0.2,0.9,0.6,1.1c0.4,0.2,0.9,0.3,1.4,0.3l0,0l-1.1,0.5c1.9,0,3.2,0,4,0s1.3-0.1,1.8-0.2l0,0l0.1-1.5
				c0.1,0.2,0.4,0.5,0.9,0.8c0.5,0.4,0.8,0.5,1.1,0.5c0.2,0,0.6,0,1.3-0.1c0.7-0.1,1.4-0.2,2.3-0.3s1.6-0.2,2.3-0.3
				c0.7-0.1,1.1-0.1,1.3-0.2c0,0,0.2-0.1,0.5-0.1s0.5,0,0.8,0.1s0.5,0.2,0.8,0.4c0.2,0.2,0.3,0.5,0.3,1c0,0.4,0,0.7-0.1,1l0,0.2
				c0,0.2,0,0.5,0,0.8c0,0.6,0,1.2,0,1.6s0.1,0.9,0.2,1.3c0.1,0.4,0.3,0.7,0.6,1.1s0.7,0.7,1.2,1.1c0,0.2,0,0.4-0.1,0.5
				C22,38,22,38.5,22,39.2c0,0.2,0,0.4-0.1,0.5s-0.1,0.1-0.2,0.2S21.5,40,21.5,40s-0.1,0.2-0.1,0.4c0,0.3,0.2,0.5,0.5,0.5
				c0.3,0,0.5,0.1,0.5,0.3c0,0.2-0.1,0.3-0.3,0.4c-0.2,0-0.5,0.1-0.7,0.2s-0.5,0.2-0.7,0.4c-0.2,0.2-0.3,0.6-0.3,1.1
				c0,0.6,0.1,1.2,0.2,2c0.1,0.7,0.3,1.2,0.4,1.5c0.2-0.2,0.5-0.4,0.6-0.4c0,0,0.1,0,0.1,0l0,0c0,0,0,0,0.1,0l0,0h0.1v-0.1
				c0.1,0,0.2,0.1,0.2,0.2s0.1,0.2,0.1,0.3c-0.7,0.9-1.1,1.8-1.3,2.6s-0.3,1.8-0.3,2.9c0,0.6,0.1,1.2,0.2,1.8c0.1,0.6,0.4,1.2,1,1.5
				c-0.1,0.2-0.3,0.3-0.6,0.3s-0.5,0-0.6,0c0,0,0.1,0.1,0.1,0.1c0.1,0,0.3,0.2,0.5,0.4s0.3,0.4,0.4,0.5c0,0.1-0.2,0.4-0.6,0.8
				c-0.1,1-0.2,1.8-0.2,2.4c0,0.6-0.1,1.4-0.1,2.3c0,0.4,0,0.8,0,1.3c0,0.5,0.1,0.9,0.1,1.4s0.2,0.8,0.3,1.1s0.4,0.5,0.6,0.5
				c0.3,0,0.6,0,0.8-0.1s0.5-0.1,0.8-0.1s0.5,0.1,0.7,0.3s0.4,0.3,0.5,0.5s0.3,0.3,0.5,0.5S25.3,68.1,25.6,68.1z M41.6,17
				c-0.1,0-0.2-0.1-0.2-0.2c0-0.2,0.1-0.3,0.2-0.3s0.2,0.1,0.2,0.3C41.8,16.9,41.7,17,41.6,17z M30,20.4c-0.4,0-0.6-0.3-0.6-0.8
				c0.1,0,0.3,0,0.6,0c0.3,0,0.5,0.2,0.6,0.4C30.5,20.3,30.3,20.4,30,20.4z M31.5,21.8c0,0-0.1,0-0.2-0.1s-0.1-0.2-0.1-0.2
				c0-0.1,0.1-0.3,0.2-0.6c0.1-0.3,0.3-0.6,0.4-0.8c0.2,0.3,0.4,0.6,0.4,0.9c0,0.2,0,0.4-0.1,0.5C31.9,21.4,31.7,21.6,31.5,21.8z
				 M3.7,20.6c-0.3,0-0.5-0.2-0.5-0.6l0,0h1C4.2,20.4,4,20.6,3.7,20.6z M45.5,21.5c-0.1,0-0.2-0.1-0.3-0.3C45.1,21,45,20.8,45,20.6
				c0,0,0.1,0,0.1,0s0.1,0,0.1,0c0.1,0,0.2,0,0.4,0s0.2,0.1,0.2,0.3c0,0.1,0,0.2-0.1,0.4S45.6,21.5,45.5,21.5z M7.4,22.1l0.1-1.4
				c0.1,0,0.1-0.1,0.1-0.1s0.1,0,0.3,0.1c0.2,0,0.4,0.1,0.6,0.1s0.4,0.1,0.6,0.2s0.3,0.1,0.3,0.2c0,0-0.2,0.1-0.4,0.2
				s-0.4,0.2-0.6,0.3S8,21.9,7.8,21.9C7.6,22,7.4,22.1,7.4,22.1L7.4,22.1z M43.3,21.4h-0.6l0,0V21c0-0.1,0.1-0.3,0.3-0.4l0,0
				L43.3,21.4z M38.1,23.4C38,23,38,22.6,37.9,22s-0.1-1-0.1-1.4l0,0h0.4v1.4h1.1c0,0.2-0.1,0.5-0.4,0.8
				C38.8,23.2,38.5,23.4,38.1,23.4z M6.1,23.6l-2.2-0.2l1.9-2.4L6.1,23.6z M39.3,21.4c-0.1,0-0.2-0.1-0.2-0.2c0-0.2,0.1-0.3,0.2-0.3
				s0.2,0.1,0.2,0.3C39.5,21.3,39.4,21.4,39.3,21.4z M13.3,22.6c-0.1,0-0.2-0.1-0.2-0.2c0-0.2,0.1-0.3,0.2-0.3s0.2,0.1,0.2,0.3
				C13.5,22.5,13.4,22.6,13.3,22.6z M32.4,22.8h-0.7c0-0.1,0-0.3,0-0.4s0.1-0.3,0.3-0.4C32.3,22.3,32.4,22.6,32.4,22.8L32.4,22.8z
				 M46.5,24h-0.6c0-0.3,0-0.7,0.1-1.1c0.1-0.4,0.3-0.6,0.7-0.6c0,0.1,0,0.4-0.1,0.9C46.6,23.7,46.5,24,46.5,24L46.5,24z M26.4,24
				c0-0.1,0.1-0.4,0.4-0.8c0.3-0.4,0.5-0.6,0.6-0.6s0.2,0.1,0.2,0.2c0,0.1,0.1,0.2,0.1,0.3c0,0.4-0.1,0.7-0.2,0.8S27.1,24,26.4,24z
				 M47,23.2c-0.1,0-0.2-0.1-0.2-0.3c0-0.2,0.1-0.4,0.2-0.4s0.2,0.1,0.2,0.4C47.3,23.1,47.2,23.2,47,23.2z M7.8,23.4
				c-0.1,0-0.2-0.1-0.2-0.3s0.1-0.3,0.2-0.3C8,22.8,8,22.9,8,23.1c0,0,0,0.1,0,0.1l0,0l0,0C8,23.3,7.9,23.3,7.8,23.4L7.8,23.4
				L7.8,23.4L7.8,23.4L7.8,23.4z M8.4,24.5c-0.1,0-0.2-0.2-0.3-0.5c-0.1-0.3-0.2-0.5-0.2-0.5c0,0,0-0.1,0-0.1l0,0l0,0
				c0,0,0.1-0.1,0.1-0.1l0-0.1l0,0l0,0l0.1,0c0.1,0,0.2,0.1,0.2,0.3c0,0,0,0.2,0.1,0.5C8.5,24.3,8.5,24.5,8.4,24.5z M10.2,24.3
				c0,0,0-0.1,0-0.2c0-0.1-0.1-0.2-0.3-0.2l0,0l-0.3-0.2l0.3-0.3c0.2,0,0.3,0.2,0.3,0.4S10.2,24.3,10.2,24.3L10.2,24.3L10.2,24.3z
				 M29,24.9c0-0.2,0-0.6,0.1-0.9c0.1-0.4,0.2-0.6,0.3-0.6c0.3,0,0.5,0,0.5,0.1s0.1,0.2,0.1,0.4C30.1,24.6,29.7,24.9,29,24.9z
				 M32,23.8c0,0-0.1,0-0.2-0.1s-0.2-0.1-0.3-0.1l0,0l0,0c0.1-0.1,0.3-0.1,0.5-0.1l0.1,0C32.1,23.7,32.1,23.8,32,23.8z M11.6,25
				c0-0.1,0.1-0.4,0.4-0.8c0.3-0.4,0.5-0.6,0.6-0.6s0.2,0.1,0.2,0.2s0.1,0.2,0.1,0.3c0,0.4-0.1,0.7-0.2,0.8
				C12.6,24.9,12.3,25,11.6,25z M16.5,24.3c-0.1,0-0.2-0.1-0.2-0.3s0.1-0.3,0.2-0.3s0.2,0.1,0.2,0.3S16.7,24.3,16.5,24.3z M6,25.6
				c-0.1,0-0.2-0.2-0.4-0.6c-0.2-0.4-0.3-0.7-0.3-0.8c0-0.2,0.1-0.3,0.2-0.3c0.1,0,0.3,0.1,0.6,0.2c0.3,0.1,0.4,0.2,0.4,0.3
				s-0.1,0.3-0.2,0.7S6.1,25.6,6,25.6z M31.2,24.3L31.2,24.3L31.2,24.3l0-0.1l0,0c0.1,0,0.1,0.1,0.2,0.2l0,0.1
				c0,0.2-0.1,0.3-0.2,0.3S31,24.8,31,24.6c0-0.2,0.1-0.4,0.2-0.4l0,0L31.2,24.3z M13.9,24.9c0,0-0.1-0.1-0.3-0.2
				c-0.1-0.1-0.2-0.2-0.1-0.3l0,0v-0.1c0.1,0,0.3,0.1,0.3,0.2c0.1,0.1,0.1,0.2,0.1,0.3C14,24.8,13.9,24.8,13.9,24.9z M27.2,25.1
				c-0.1,0-0.2-0.1-0.2-0.3s0.1-0.3,0.2-0.3c0.1,0,0.2,0.1,0.2,0.3S27.3,25.1,27.2,25.1z M4.7,26.2l-0.4-1.7L5,25.9L4.7,26.2z
				 M6.1,29c-0.3,0.2-0.8,0.2-1.5,0c0.1-0.1,0.3-0.4,0.5-0.8c0.2-0.4,0.4-0.6,0.7-0.6C6.3,28.2,6.5,28.7,6.1,29z M28.9,29.9h-0.4
				v-0.6C28.8,29.5,28.9,29.6,28.9,29.9L28.9,29.9z M22.8,38.6c-0.1,0-0.2-0.1-0.2-0.3c0-0.2,0.1-0.3,0.2-0.3s0.2,0.1,0.2,0.3
				C23.1,38.5,23,38.6,22.8,38.6z M23.1,47.4v-0.6h0.6c0,0.1,0,0.2-0.1,0.4S23.3,47.4,23.1,47.4L23.1,47.4z M28.3,47.8
				c-0.1,0-0.2-0.1-0.2-0.2c0-0.2,0.1-0.3,0.2-0.3s0.2,0.1,0.2,0.3C28.5,47.7,28.4,47.8,28.3,47.8z M21.7,50.1
				c-0.1,0-0.2-0.1-0.2-0.3s0.1-0.3,0.2-0.3s0.2,0.1,0.2,0.3S21.8,50.1,21.7,50.1z M21,52.4c0-0.5,0.2-0.9,0.5-1.1
				c0.4-0.2,0.8-0.3,1.2-0.3c0,0.5-0.2,0.8-0.5,1.1C21.9,52.2,21.5,52.4,21,52.4z"/>
		</g>
	</g>
</g>
</svg>
