<?xml version="1.0" encoding="UTF-8"?>
<svg width="114px" height="54px" viewBox="0 0 114 54" version="1.1" xmlns="http://www.w3.org/2000/svg" xmlns:xlink="http://www.w3.org/1999/xlink">
    <!-- Generator: Sketch 63.1 (92452) - https://sketch.com -->
    <title>bemo-logo_vertical-bianco</title>
    <desc>Created with Sketch.</desc>
    <g id="Symbols" stroke="none" stroke-width="1"  fill-rule="evenodd">
        <g id="Brand/Wordmark-T" transform="translate(-1.000000, -1.000000)" fill-rule="nonzero">
            <g id="bemo-logo_vertical-bianco" transform="translate(-1.000000, -14.000000)">
                <path d="M114.305085,25.6935737 L114.305085,61.2978056 L7.69491525,61.2978056 L7.69491525,25.6935737 L114.305085,25.6935737 M116,23.9913793 L6,23.9913793 L6,63 L116,63 L116,23.9913793 L116,23.9913793 Z" id="Shape" fill="#2B388F"></path>
                <g id="Group" transform="translate(0.492958, 0.353448)" fill="#F05A28">
                    <polygon id="Path" points="39.8155842 33.0869335 52.0656095 33.0869335 52.0656095 37.4625862 44.9884487 37.4625862 44.9884487 40.7370813 51.2413618 40.7370813 51.2413618 45.1996675 44.9884487 45.1996675 44.9884487 48.90883 52.0656095 48.90883 52.0656095 53.2265271 39.8155842 53.2265271"></polygon>
                    <path d="M25.5733406,68.0940655 C25.6691049,68.0461834 25.7768397,67.9743602 25.896545,67.8785959 C26.0162504,67.7828317 26.076103,67.6870674 26.076103,67.5913031 C25.8845745,67.3040103 25.6691049,67.1603639 25.4296942,67.1603639 C25.5733406,67.0645996 25.7768397,66.84913 26.0401914,66.513955 C26.3035432,66.1787801 26.5668949,65.8316346 26.8302467,65.4725186 C27.0935984,65.1134026 27.3210386,64.7662571 27.5125671,64.4310821 C27.7040957,64.0959072 27.7998599,63.8564965 27.7998599,63.7128501 C27.7998599,63.4734394 27.7639483,63.3178224 27.6921251,63.2459992 C27.6203019,63.174176 27.5484787,63.1143234 27.4766555,63.0664412 C27.4048323,63.0185591 27.3330091,62.9587064 27.2611859,62.8868832 C27.1893627,62.81506 27.1534511,62.6594431 27.1534511,62.4200324 C27.1534511,62.2285038 27.1414806,61.9292405 27.1175395,61.5222423 C27.0935984,61.1152442 27.0696574,60.6723344 27.0457163,60.1935131 C27.0217752,59.7146917 26.9858636,59.2598114 26.9379815,58.8288722 C26.8900993,58.3979329 26.8661583,58.0866991 26.8661583,57.8951705 C26.9619225,57.7515241 27.0337458,57.5599956 27.0816279,57.3205849 C27.12951,57.0811742 27.1773922,56.829793 27.2252743,56.5664412 C27.2731564,56.3030895 27.3449796,56.0876199 27.4407439,55.9200324 C27.5365082,55.7524449 27.7040957,55.6686512 27.9435063,55.6686512 C28.0871528,55.6686512 28.2068581,55.6925922 28.3026224,55.7404744 L28.3026224,55.7404744 L30.3136721,53.6576014 C30.1700257,53.6576014 30.0144087,53.7054836 29.8468213,53.8012479 C29.6792338,53.8970121 29.5475579,53.9448943 29.4517936,53.9448943 C29.0687365,53.9448943 28.6856795,53.7174541 28.3026224,53.2625738 C27.9195653,52.8076935 27.7280367,52.3887248 27.7280367,52.0056677 C27.7280367,51.9099035 27.7998599,51.8021687 27.9435063,51.6824633 C28.0871528,51.562758 28.2068581,51.5029053 28.3026224,51.5029053 L28.3026224,51.5029053 L28.3026224,49.4918556 C28.3983866,49.4918556 28.5659741,49.3601797 28.8053848,49.096828 C29.0447955,48.8334762 29.2961767,48.5222423 29.5595284,48.1631263 C29.8228802,47.8040103 30.0742614,47.4568648 30.3136721,47.1216898 C30.5530828,46.7865149 30.7446113,46.5471042 30.8882577,46.4034578 C30.7446113,46.4034578 30.5889944,46.4633105 30.4214069,46.5830158 C30.2538194,46.7027212 30.1221435,46.7625738 30.0263793,46.7625738 C29.212383,46.5710453 28.6377973,46.1281355 28.3026224,45.4338445 C27.9674474,44.7395536 27.7998599,44.0572331 27.7998599,43.3868832 L27.7998599,43.3868832 L27.8716831,43.3868832 C27.9195653,43.3868832 27.9435063,43.3749127 27.9435063,43.3509716 L27.9514867,43.3310207 C27.9621272,43.3203802 27.9834081,43.31506 28.0153295,43.31506 C28.2068581,43.31506 28.4223277,43.470677 28.6617384,43.7819108 C28.9011491,44.0931447 29.1166187,44.2487617 29.3081472,44.2487617 C29.3560294,44.2487617 29.4039115,44.2248206 29.4517936,44.1769385 L29.4517936,44.1769385 L29.7390865,41.6631263 C29.5475579,41.5194799 29.4278526,41.3040103 29.3799704,41.0167175 C29.3320883,40.7294247 29.2961767,40.4541024 29.2722356,40.1907506 C29.2482946,39.9273989 29.2243535,39.6879882 29.2004124,39.4725186 C29.1764714,39.257049 29.0687365,39.1253731 28.877208,39.077491 L28.877208,39.077491 L28.877208,39.3647838 C28.877208,39.5563123 28.8532669,39.7598114 28.8053848,39.975281 C28.7575027,40.1907506 28.6856795,40.3942497 28.5899152,40.5857782 C28.4941509,40.7773068 28.3505045,40.8730711 28.158976,40.8730711 C28.0632117,40.8730711 27.9794179,40.8251889 27.9075947,40.7294247 C27.8357715,40.6336604 27.7759189,40.5618372 27.7280367,40.513955 C27.7759189,40.3224265 27.823801,40.1069569 27.8716831,39.8675462 C27.9195653,39.6281355 27.9913885,39.4126659 28.0871528,39.2211374 C28.182917,39.0296088 28.2547402,38.8141392 28.3026224,38.5747285 C28.3026224,38.5268464 28.158976,38.407141 27.8716831,38.2156125 C27.7280367,38.1198482 27.5843903,38.048025 27.4407439,38.0001429 C27.6801546,37.8086143 27.8956242,37.5931447 28.0871528,37.353734 C28.2786813,37.1143234 28.3744456,36.8749127 28.3744456,36.635502 C28.3265634,36.635502 28.3026224,36.6115609 28.3026224,36.5636788 L28.3026224,36.5636788 L28.3026224,36.276386 C28.2547402,36.3721503 28.1709465,36.4439735 28.0512411,36.4918556 C27.9315358,36.5397377 27.823801,36.5876199 27.7280367,36.635502 L27.7280367,36.635502 L27.7280367,36.5636788 C27.7280367,36.5157967 27.6801546,36.4080619 27.5843903,36.2404744 C27.488626,36.0728869 27.4407439,35.941211 27.4407439,35.8454468 C27.4407439,35.8454468 27.4616923,35.8304836 27.5035892,35.8005572 L27.6921251,35.6658887 C27.8597126,35.5461834 28.0632117,35.4145075 28.3026224,35.2708611 C28.542033,35.1272147 28.7694732,34.9955388 28.9849428,34.8758335 C29.2004124,34.7561282 29.3560294,34.6723344 29.4517936,34.6244523 C29.4039115,34.4808059 29.3799704,34.2653363 29.3799704,33.9780434 C29.3799704,33.4034578 29.4517936,32.9006954 29.59544,32.4697561 C29.7390865,32.0388169 29.8109097,31.5121134 29.8109097,30.8896456 C29.8109097,30.3629421 29.751057,29.9080619 29.6313516,29.5250048 C29.5116463,29.1419477 29.4517936,28.7349495 29.4517936,28.3040103 C29.4517936,28.0167175 29.6433222,27.5857782 30.0263793,27.0111926 C30.4094364,26.436607 30.7446113,26.1493142 31.0319041,26.1493142 C31.0797863,26.1493142 31.1875211,26.2091668 31.3551086,26.3288722 C31.522696,26.4485775 31.6543719,26.5563123 31.7501362,26.6520766 L31.7501362,26.6520766 L34.3357715,26.6520766 C34.4794179,26.077491 34.7667108,25.6465517 35.19765,25.3592589 C35.3891785,25.4550232 35.5208544,25.6226107 35.5926776,25.8620213 C35.6645008,26.101432 35.7722356,26.2211374 35.915882,26.2211374 C36.251057,26.2211374 36.4665266,26.0176383 36.5622909,25.6106401 C36.6580551,25.203642 36.8974658,25.0001429 37.2805229,25.0001429 C37.6156979,25.0001429 37.9029907,25.1078777 38.1424014,25.3233473 C38.3818121,25.5388169 38.6691049,25.6465517 39.0042798,25.6465517 C39.052162,25.6465517 39.1479262,25.5986696 39.2915726,25.5029053 L39.3720146,25.4511926 C39.4716095,25.3899035 39.5405597,25.3592589 39.5788655,25.3592589 C39.6746297,25.3113768 39.949952,25.2395536 40.4048323,25.1437893 C40.8597126,25.048025 41.338534,24.9522607 41.8412964,24.8564965 C42.3440588,24.7607322 42.7989391,24.6769385 43.2059373,24.6051153 C43.6129354,24.5332921 43.8403756,24.4973805 43.8882577,24.4973805 L43.8882577,24.4973805 L43.8882577,25.1437893 C44.4149612,25.1437893 44.8698415,25.0121134 45.2528986,24.7487617 C45.6359557,24.4854099 46.0429539,24.3058519 46.4738931,24.2100876 C46.6654216,24.2100876 46.8210386,24.2579698 46.9407439,24.353734 C47.0604493,24.4494983 47.2878894,24.4973805 47.6230644,24.4973805 C48.2934143,24.4973805 48.6645008,24.4375278 48.736324,24.3178224 C48.8081472,24.1981171 48.8440588,23.8988537 48.8440588,23.4200324 C48.8440588,22.9890932 48.7243535,22.6658887 48.4849428,22.4504191 C48.2455321,22.2349495 47.9702098,22.0793326 47.658976,21.9835683 C47.3477421,21.887804 47.0724198,21.7800692 46.8330091,21.6603639 C46.5935984,21.5406585 46.4738931,21.3371595 46.4738931,21.0498666 C46.4738931,20.6189274 46.4020699,20.1520766 46.2584235,19.6493142 C46.1147771,19.1465517 45.8514253,18.8951705 45.4683682,18.8951705 C45.3726039,18.8951705 45.2289575,18.9909348 45.037429,19.1824633 C44.8459004,19.3739919 44.702254,19.4697561 44.6064898,19.4697561 C44.4149612,19.4697561 44.2114621,19.3620213 43.9959925,19.1465517 C43.7805229,18.9310821 43.5530828,18.7754652 43.3136721,18.6797009 C43.984022,18.4402902 44.4389023,18.0452626 44.678313,17.494618 C44.9177237,16.9439735 45.037429,16.3574173 45.037429,15.7349495 C44.8459004,15.7349495 44.6064898,15.7708611 44.3191969,15.8426843 C44.0319041,15.9145075 43.8882577,16.0222423 43.8882577,16.1658887 C43.8882577,16.3095351 43.9481104,16.441211 44.0678157,16.5609164 C44.1875211,16.6806217 44.2473737,16.8122976 44.2473737,16.955944 C44.2473737,17.1474725 44.1396389,17.3270305 43.9241693,17.494618 C43.7086997,17.6622055 43.469289,17.8178224 43.2059373,17.9614689 C42.9425855,18.1051153 42.7031749,18.2487617 42.4877052,18.3924081 C42.2722356,18.5360545 42.1645008,18.6797009 42.1645008,18.8233473 C42.1645008,19.062758 42.2722356,19.1704928 42.4877052,19.1465517 C42.7031749,19.1226107 42.8109097,19.2303455 42.8109097,19.4697561 C42.8109097,19.8528132 42.5475579,20.0443418 42.0208544,20.0443418 C41.4462688,20.0443418 41.158976,19.8049311 41.158976,19.3261097 C41.158976,19.1824633 41.2068581,18.9669937 41.3026224,18.6797009 C41.2547402,18.727583 41.1709465,18.7874357 41.0512411,18.8592589 C40.9315358,18.9310821 40.823801,18.9669937 40.7280367,18.9669937 C40.488626,18.9669937 40.3689207,18.7754652 40.3689207,18.3924081 C40.3689207,18.2487617 40.3808912,18.1290563 40.4048323,18.0332921 C40.4287734,17.9375278 40.4407439,17.8657046 40.4407439,17.8178224 C40.488626,17.8657046 40.5724198,17.9255572 40.6921251,17.9973805 C40.8118305,18.0692037 40.9195653,18.1051153 41.0153295,18.1051153 C41.2547402,18.1051153 41.6018857,17.9734394 42.056766,17.7100876 C42.5116463,17.4467359 42.7390865,17.1474725 42.7390865,16.8122976 C42.7390865,16.5728869 42.5834695,16.3574173 42.2722356,16.1658887 C41.9610017,15.9743602 41.6856795,15.8785959 41.4462688,15.8785959 C41.0153295,15.8785959 40.5245376,16.082095 39.9738931,16.4890932 C39.4232485,16.8960913 39.0042798,17.0995904 38.716987,17.0995904 L38.716987,17.0995904 L38.716987,14.9448943 C38.6691049,14.9448943 38.5015174,15.0526291 38.2142246,15.2680987 C37.9269318,15.4835683 37.6276684,15.7349495 37.3164345,16.0222423 C37.0052006,16.3095351 36.7179078,16.5848574 36.4545561,16.8482092 C36.1912043,17.1115609 36.0595284,17.2671779 36.0595284,17.31506 L36.0595284,17.31506 L35.7722356,16.1658887 L36.5622909,16.1658887 C36.5622909,15.7828317 36.430615,15.543421 36.1672632,15.4476567 C35.9039115,15.3518924 35.6285892,15.3040103 35.3412964,15.3040103 C35.1497679,15.3040103 35.042033,15.3758335 35.018092,15.5194799 C34.9941509,15.6631263 34.9582393,15.8546549 34.9103572,16.0940655 C34.862475,16.3334762 34.7427697,16.5848574 34.5512411,16.8482092 C34.3597126,17.1115609 34.0005966,17.3868832 33.4738931,17.674176 C33.4738931,17.9614689 33.6654216,18.1051153 34.0484787,18.1051153 C34.144243,18.1051153 34.2400073,18.0931447 34.3357715,18.0692037 L34.4315358,18.0492528 C34.4953787,18.0386123 34.5592215,18.0332921 34.6230644,18.0332921 L34.6230644,18.0332921 L34.6230644,20.4034578 C34.6230644,20.7386328 34.4674474,20.9660729 34.1562135,21.0857782 C33.8449796,21.2054836 33.5696574,21.2653363 33.3302467,21.2653363 C33.1387181,21.2653363 32.9711307,21.1336604 32.8274842,20.8703086 C32.6838378,20.6069569 32.576103,20.2837525 32.5042798,19.9006954 C32.4324566,19.5176383 32.3726039,19.1226107 32.3247218,18.7156125 C32.2768397,18.3086143 32.2528986,17.9375278 32.2528986,17.6023528 C32.2528986,17.4587064 32.2648691,17.3390011 32.2888102,17.2432368 C32.3127513,17.1474725 32.3247218,17.0517083 32.3247218,16.955944 C32.0853111,16.7644154 31.702254,16.5130342 31.1755505,16.2018003 C30.648847,15.8905665 30.1460846,15.7349495 29.6672632,15.7349495 C29.6672632,16.1180066 29.7869686,16.3693878 30.0263793,16.4890932 C30.26579,16.6087985 30.3854953,16.9080619 30.3854953,17.3868832 C30.3854953,17.7699403 30.3376132,18.1769385 30.2418489,18.6078777 C30.1460846,19.0388169 29.7869686,19.2542865 29.1645008,19.2542865 C28.9729723,19.2542865 28.877208,19.1585223 28.877208,18.9669937 L28.877208,18.9669937 L28.877208,15.8785959 L29.1645008,15.5194799 C29.1645008,15.3758335 29.056766,15.3040103 28.8412964,15.3040103 L28.8412964,15.3040103 L28.5899152,15.3040103 C28.0632117,15.543421 27.6322725,15.6990379 27.2970975,15.7708611 C26.9619225,15.8426843 26.6866003,15.8905665 26.4711307,15.9145075 C26.255661,15.9384486 26.1120146,15.9623897 26.0401914,15.9863307 C25.9683682,16.0102718 25.9324566,16.1180066 25.9324566,16.3095351 C26.9858636,16.3095351 27.6083314,16.4890932 27.7998599,16.8482092 C27.9913885,17.2073252 28.0871528,17.8657046 28.0871528,18.8233473 C28.0871528,19.1106401 28.0512411,19.4338445 27.9794179,19.7929606 C27.9075947,20.1520766 27.7998599,20.4872515 27.6562135,20.7984854 C27.5125671,21.1097193 27.309068,21.3850416 27.0457163,21.6244523 C26.7823645,21.863863 26.4591601,21.9835683 26.076103,21.9835683 C26.076103,21.7441576 26.0641325,21.5765701 26.0401914,21.4808059 C26.0162504,21.3850416 26.0042798,21.2892773 26.0042798,21.1935131 C26.0042798,21.0498666 26.1000441,20.7865149 26.2915726,20.4034578 L26.2915726,20.4034578 L26.1479262,20.4034578 C26.052162,20.3555757 26.0042798,20.3316346 26.0042798,20.3316346 C25.6691049,20.3316346 25.4416647,20.4513399 25.3219594,20.6907506 C25.202254,20.9301613 24.998755,21.0498666 24.7114621,21.0498666 C24.7114621,20.7146917 24.7354032,20.4513399 24.7832853,20.2598114 C24.8311675,20.0682828 24.8551086,19.8049311 24.8551086,19.4697561 C24.8551086,19.3739919 24.7832853,19.3141392 24.6396389,19.2901981 C24.4959925,19.2662571 24.4241693,19.2303455 24.4241693,19.1824633 C24.2326408,19.421874 24.0530828,19.7211374 23.8854953,20.0802534 C23.7179078,20.4393694 23.6341141,20.6428685 23.6341141,20.6907506 C23.6341141,20.6907506 23.6580551,20.6668096 23.7059373,20.6189274 C23.7538194,20.6668096 23.8017016,20.7506033 23.8495837,20.8703086 C23.8974658,20.990014 23.945348,21.0977488 23.9932301,21.1935131 C23.8974658,21.2413952 23.7059373,21.2892773 23.4186445,21.3371595 C23.1313516,21.3850416 22.9398231,21.4089827 22.8440588,21.4089827 C22.6525303,21.4089827 22.5208544,21.3132184 22.4490312,21.1216898 C22.377208,20.9301613 22.3173553,20.7027212 22.2694732,20.4393694 C22.2215911,20.1760177 22.1617384,19.936607 22.0899152,19.7211374 C22.018092,19.5056677 21.8864161,19.3500508 21.6948876,19.2542865 C21.6948876,19.5415793 21.6350349,19.8408427 21.5153295,20.1520766 C21.3956242,20.4633105 21.1681841,20.7146917 20.8330091,20.9062202 C20.8330091,20.9062202 20.7372448,20.990014 20.5457163,21.1576014 C20.3541877,21.3251889 20.1267476,21.528688 19.8633958,21.7680987 L19.6726155,21.9409233 C19.4885685,22.1070144 19.3247218,22.2529053 19.1810754,22.3785959 C18.9895469,22.5461834 18.8937826,22.6299771 18.8937826,22.6299771 C18.8937826,22.582095 18.9296942,22.402537 19.0015174,22.0913031 C19.0733406,21.7800692 19.1212227,21.4448943 19.1451638,21.0857782 C19.1691049,20.7266622 19.1451638,20.4154283 19.0733406,20.1520766 C19.0015174,19.8887248 18.8219594,19.757049 18.5346666,19.757049 C18.4389023,19.757049 18.2354032,19.9006954 17.9241693,20.1879882 C17.6129354,20.475281 17.26579,20.7865149 16.8827329,21.1216898 L17.1280423,20.9065517 L17.0982025,20.9062202 L17.0980423,20.9325517 L16.8827329,21.1216898 C16.5379815,21.4664412 16.1625855,21.8265149 15.756545,22.2019108 L15.4462688,22.4863307 C15.3505045,22.4863307 15.2786813,22.3785959 15.2307992,22.1631263 C15.182917,21.9476567 15.158976,21.708246 15.158976,21.4448943 C15.158976,21.1815425 15.1470054,20.9421318 15.1230644,20.7266622 C15.0991233,20.5111926 15.0392706,20.4034578 14.9435063,20.4034578 C14.8956242,20.4034578 14.7878894,20.4393694 14.6203019,20.5111926 C14.4527144,20.5830158 14.3210386,20.6189274 14.2252743,20.6189274 C14.0337458,20.5231631 13.8302467,20.3316346 13.6147771,20.0443418 C13.3993074,19.757049 13.2436905,19.6134026 13.1479262,19.6134026 C12.8127513,19.6134026 12.6451638,19.757049 12.6451638,20.0443418 C12.6451638,20.0922239 12.6571343,20.1401061 12.6810754,20.1879882 C12.7050165,20.2358703 12.716987,20.2837525 12.716987,20.3316346 C12.716987,20.475281 12.6691049,20.6069569 12.5733406,20.7266622 C12.4775763,20.8463676 12.2381656,20.9062202 11.8551086,20.9062202 C12.0466371,20.9541024 12.1543719,21.0498666 12.178313,21.1935131 C12.202254,21.3371595 12.2142246,21.4808059 12.2142246,21.6244523 C12.2142246,21.863863 12.178313,22.043421 12.1064898,22.1631263 C12.0346666,22.2828317 11.8551086,22.3426843 11.5678157,22.3426843 C11.5678157,22.2948022 11.5199336,22.1391852 11.4241693,21.8758335 C11.3284051,21.6124817 11.2805229,21.4329237 11.2805229,21.3371595 C11.2805229,21.0977488 11.3403756,20.9062202 11.4600809,20.7625738 C11.5797863,20.6189274 11.6396389,20.4513399 11.6396389,20.2598114 C11.6396389,19.78099 11.5199336,19.5176383 11.2805229,19.4697561 C10.9932301,19.757049 10.7538194,19.9844891 10.5622909,20.1520766 C10.3707623,20.3196641 10.0355874,20.4034578 9.55676601,20.4034578 C9.65253028,20.3076935 9.73632402,20.1760177 9.80814723,20.0084302 C9.87997043,19.8408427 9.96376417,19.6852258 10.0595284,19.5415793 L10.0595284,19.5415793 L10.2031749,18.9669937 L8.83853397,18.9669937 C8.83853397,19.1106401 8.80262236,19.2782276 8.73079916,19.4697561 C8.65897596,19.6612847 8.50335901,19.757049 8.26394833,19.757049 C8.07241979,19.757049 7.92877338,19.6493142 7.8330091,19.4338445 C7.73724483,19.2183749 7.64148056,19.062758 7.54571629,18.9669937 C7.01901279,19.1585223 6.75566104,19.3739919 6.75566104,19.6134026 C6.75566104,19.7091668 6.76763157,19.8049311 6.79157264,19.9006954 C6.81551371,19.9964596 6.82748424,20.1401061 6.82748424,20.3316346 C6.44442715,20.3316346 6.13319327,20.2717819 5.89378259,20.1520766 C5.6543719,20.0323712 5.53466656,19.7331079 5.53466656,19.2542865 L5.53466656,19.2542865 L2.9490312,19.4697561 C2.85326693,19.4697561 2.73356159,19.577491 2.58991518,19.7929606 C2.44626877,20.0084302 2.37444557,20.1640471 2.37444557,20.2598114 C2.37444557,20.4992221 2.43429824,20.7625738 2.55400358,21.0498666 C2.67370892,21.3371595 2.73356159,21.6723344 2.73356159,22.0553915 C2.73356159,22.1511558 2.72159106,22.24692 2.69764999,22.3426843 C2.67370892,22.4384486 2.66173839,22.5102718 2.66173839,22.5581539 L2.66173839,22.5581539 L2.08715275,22.8454468 C2.23079916,22.8933289 2.37444557,22.9651521 2.51809198,23.0609164 C2.80538479,23.2524449 2.9490312,23.3721503 2.9490312,23.4200324 L2.9490312,23.4200324 L2.9490312,24.4973805 L3.52361684,24.2100876 C3.61938111,24.7367911 3.70317485,25.1437893 3.77499805,25.4310821 C3.84682126,25.7183749 3.88273286,26.077491 3.88273286,26.5084302 C3.88273286,27.1308979 3.79893912,27.5259256 3.63135165,27.6935131 C3.46376417,27.8611005 3.26026509,27.9448943 3.02085441,27.9448943 C2.92509014,27.9448943 2.82932586,27.9329237 2.73356159,27.9089827 L2.63779732,27.8890318 C2.57395447,27.8783913 2.51011162,27.8730711 2.44626877,27.8730711 C2.20685809,27.8730711 2.08715275,27.9927764 2.08715275,28.2321871 C2.08715275,28.7588906 2.30262236,29.1180066 2.73356159,29.3095351 C3.16450082,29.5010637 3.61938111,29.596828 4.09820247,29.596828 L4.09820247,29.596828 L2.9490312,30.0995904 C4.86431665,30.0995904 6.1810754,30.0876199 6.89930745,30.0636788 C7.61753949,30.0397377 8.21606619,29.9798851 8.69488756,29.8841208 L8.69488756,29.8841208 L8.83853397,28.3758335 C8.93429824,28.567362 9.22159106,28.8426843 9.70041242,29.2018003 C10.1792338,29.5609164 10.5383498,29.7404744 10.7777605,29.7404744 C10.969289,29.7404744 11.4121988,29.7045628 12.1064898,29.6327396 C12.8007807,29.5609164 13.5549244,29.4771226 14.3689207,29.3813584 C15.182917,29.2855941 15.9370607,29.2018003 16.6313516,29.1299771 C17.3256426,29.0581539 17.7685524,28.9983013 17.9600809,28.9504191 C18.0079631,28.902537 18.16358,28.8785959 18.4269318,28.8785959 C18.6902835,28.8785959 18.9656058,28.9145075 19.2528986,28.9863307 C19.5401914,29.0581539 19.7915726,29.2018003 20.0070423,29.41727 C20.2225119,29.6327396 20.3302467,29.955944 20.3302467,30.3868832 C20.3302467,30.7699403 20.3063056,31.1051153 20.2584235,31.3924081 L20.2325671,31.5705296 C20.2019225,31.8156862 20.1866003,32.0914873 20.1866003,32.3979329 C20.1866003,33.0204007 20.1985708,33.5590747 20.2225119,34.013955 C20.2464529,34.4688353 20.3182761,34.887804 20.4379815,35.2708611 C20.5576868,35.6539182 20.7611859,36.0130342 21.0484787,36.3482092 C21.3357715,36.6833841 21.7427697,37.0425002 22.2694732,37.4255572 C22.2694732,37.6649679 22.2215911,37.8325554 22.1258268,37.9283197 C22.0300625,38.024084 21.9821804,38.4550232 21.9821804,39.2211374 C21.9821804,39.460548 21.9462688,39.616165 21.8744456,39.6879882 C21.8026224,39.7598114 21.7307992,39.8196641 21.658976,39.8675462 C21.5871528,39.9154283 21.5273001,39.9633105 21.4794179,40.0111926 C21.4315358,40.0590747 21.4075947,40.1787801 21.4075947,40.3703086 C21.4075947,40.7054836 21.5632117,40.8850416 21.8744456,40.9089827 C22.1856795,40.9329237 22.3412964,41.0406585 22.3412964,41.2321871 C22.3412964,41.4237156 22.2335616,41.543421 22.018092,41.5913031 C21.8026224,41.6391852 21.5632117,41.6990379 21.2998599,41.7708611 C21.0365082,41.8426843 20.7970975,41.9863307 20.5816279,42.2018003 C20.3661583,42.41727 20.2584235,42.7883565 20.2584235,43.31506 C20.2584235,43.8896456 20.3302467,44.548025 20.4738931,45.2901981 C20.6175395,46.0323712 20.7372448,46.5231631 20.8330091,46.7625738 C21.0724198,46.5231631 21.2878894,46.4034578 21.4794179,46.4034578 C21.5273001,46.4034578 21.5512411,46.4154283 21.5512411,46.4393694 L21.5592215,46.4593203 C21.569862,46.4699608 21.5911429,46.475281 21.6230644,46.475281 L21.6230644,46.475281 L21.6948876,46.475281 L21.6948876,46.4034578 C21.7906518,46.4034578 21.862475,46.4633105 21.9103572,46.5830158 C21.9582393,46.7027212 22.0061214,46.7865149 22.0540036,46.834397 C21.3836537,47.7441576 20.964685,48.6180066 20.7970975,49.455944 C20.62951,50.2938814 20.5457163,51.2634946 20.5457163,52.3647838 C20.5457163,52.9393694 20.605569,53.5498666 20.7252743,54.1962755 C20.8449796,54.8426843 21.1681841,55.3574173 21.6948876,55.7404744 C21.5991233,55.9320029 21.3956242,56.0397377 21.0843903,56.0636788 C20.7731564,56.0876199 20.5696574,56.0995904 20.4738931,56.0995904 C20.5217752,56.1474725 20.5457163,56.1953547 20.5457163,56.2432368 C20.6414806,56.2911189 20.7970975,56.4227948 21.0125671,56.6382644 C21.2280367,56.853734 21.3597126,57.009351 21.4075947,57.1051153 C21.4075947,57.2487617 21.2160662,57.5121134 20.8330091,57.8951705 C20.7372448,58.9006954 20.6654216,59.7146917 20.6175395,60.3371595 C20.5696574,60.9596272 20.5457163,61.7257414 20.5457163,62.635502 C20.5457163,63.0185591 20.5576868,63.4494983 20.5816279,63.9283197 C20.605569,64.407141 20.6534511,64.8620213 20.7252743,65.2929606 C20.7970975,65.7238998 20.9048323,66.0949863 21.0484787,66.4062202 C21.1921251,66.7174541 21.4075947,66.8730711 21.6948876,66.8730711 C22.0300625,66.8730711 22.3053848,66.8251889 22.5208544,66.7294247 C22.736324,66.6336604 22.9877052,66.5857782 23.2749981,66.5857782 C23.5622909,66.5857782 23.8017016,66.669572 23.9932301,66.8371595 C24.1847586,67.0047469 24.3643167,67.1723344 24.5319041,67.3399219 C24.6994916,67.5075094 24.8551086,67.6750968 24.998755,67.8426843 C25.1424014,68.0102718 25.3339299,68.0940655 25.5733406,68.0940655 Z M41.5899152,16.955944 C41.4462688,16.955944 41.3744456,16.8841208 41.3744456,16.7404744 C41.3744456,16.5489458 41.4462688,16.4531816 41.5899152,16.4531816 C41.7335616,16.4531816 41.8053848,16.5489458 41.8053848,16.7404744 C41.8053848,16.8841208 41.7335616,16.955944 41.5899152,16.955944 Z M30.0263793,20.4034578 C29.59544,20.4034578 29.3799704,20.1401061 29.3799704,19.6134026 C29.4757347,19.6134026 29.6792338,19.6253731 29.9904677,19.6493142 C30.3017016,19.6732552 30.5052006,19.8049311 30.6009649,20.0443418 C30.5052006,20.2837525 30.3136721,20.4034578 30.0263793,20.4034578 Z M31.4628434,21.7680987 C31.4149612,21.7680987 31.3551086,21.7202165 31.2832853,21.6244523 C31.2114621,21.528688 31.1755505,21.4568648 31.1755505,21.4089827 C31.1755505,21.3132184 31.2473737,21.1097193 31.3910202,20.7984854 C31.5346666,20.4872515 31.6543719,20.2358703 31.7501362,20.0443418 C31.9895469,20.3316346 32.1092522,20.6189274 32.1092522,20.9062202 C32.1092522,21.1456309 32.0613701,21.3012479 31.9656058,21.3730711 C31.8698415,21.4448943 31.702254,21.5765701 31.4628434,21.7680987 Z M3.66726325,20.6189274 C3.33208829,20.6189274 3.16450082,20.4273989 3.16450082,20.0443418 L3.16450082,20.0443418 L4.17002568,20.0443418 C4.17002568,20.4273989 4.0024382,20.6189274 3.66726325,20.6189274 Z M45.4683682,21.4808059 C45.3726039,21.4808059 45.2768397,21.3850416 45.1810754,21.1935131 C45.0853111,21.0019845 45.037429,20.810456 45.037429,20.6189274 C45.0853111,20.6189274 45.1331933,20.6069569 45.1810754,20.5830158 C45.2289575,20.5590747 45.2768397,20.5471042 45.3247218,20.5471042 C45.4204861,20.5471042 45.5401914,20.5590747 45.6838378,20.5830158 C45.8274842,20.6069569 45.8993074,20.7146917 45.8993074,20.9062202 C45.8993074,21.0019845 45.8514253,21.1216898 45.755661,21.2653363 C45.6598968,21.4089827 45.5641325,21.4808059 45.4683682,21.4808059 Z M7.40206988,22.0553915 L7.54571629,20.6189274 C7.64148056,20.5710453 7.6893627,20.5471042 7.6893627,20.5471042 C7.6893627,20.5471042 7.77315643,20.5710453 7.94074391,20.6189274 C8.10833139,20.6668096 8.29985993,20.7146917 8.51532955,20.7625738 C8.73079916,20.810456 8.9223277,20.8703086 9.08991518,20.9421318 C9.25750266,21.013955 9.3412964,21.0738077 9.3412964,21.1216898 C9.29341426,21.169572 9.17370892,21.2413952 8.98218038,21.3371595 C8.79065183,21.4329237 8.58715275,21.5406585 8.37168314,21.6603639 C8.15621352,21.7800692 7.95271445,21.8758335 7.7611859,21.9476567 C7.56965735,22.0194799 7.44995201,22.0553915 7.40206988,22.0553915 L7.40206988,22.0553915 Z M43.3136721,21.4089827 L42.7390865,21.4089827 L42.7390865,21.4089827 L42.7390865,20.9780434 C42.7390865,20.834397 42.8348507,20.7146917 43.0263793,20.6189274 L43.0263793,20.6189274 L43.3136721,21.4089827 Z M38.1424014,23.4200324 C38.0466371,23.0369753 37.9748139,22.5701245 37.9269318,22.0194799 C37.8790496,21.4688353 37.8551086,21.0019845 37.8551086,20.6189274 L37.8551086,20.6189274 L38.2860478,20.6189274 L38.2860478,22.0553915 L39.3633958,22.0553915 C39.3633958,22.2948022 39.2436905,22.5701245 39.0042798,22.8813584 C38.7648691,23.1925922 38.4775763,23.3721503 38.1424014,23.4200324 Z M6.1092522,23.5636788 L3.88273286,23.3482092 L5.82195938,20.9062202 L6.1092522,23.5636788 Z M39.2915726,21.4089827 C39.1479262,21.4089827 39.076103,21.3371595 39.076103,21.1935131 C39.076103,21.0019845 39.1479262,20.9062202 39.2915726,20.9062202 C39.435219,20.9062202 39.5070423,21.0019845 39.5070423,21.1935131 C39.5070423,21.3371595 39.435219,21.4089827 39.2915726,21.4089827 Z M13.2915726,22.5581539 C13.1479262,22.5581539 13.076103,22.4863307 13.076103,22.3426843 C13.076103,22.1511558 13.1479262,22.0553915 13.2915726,22.0553915 C13.435219,22.0553915 13.5070423,22.1511558 13.5070423,22.3426843 C13.5070423,22.4863307 13.435219,22.5581539 13.2915726,22.5581539 Z M32.396545,22.8454468 L31.678313,22.8454468 C31.678313,22.7018003 31.6902835,22.5581539 31.7142246,22.4145075 C31.7381656,22.2708611 31.8459004,22.1511558 32.037429,22.0553915 C32.2768397,22.2948022 32.396545,22.5581539 32.396545,22.8454468 L32.396545,22.8454468 Z M46.4738931,23.994618 L45.8993074,23.994618 C45.8993074,23.6594431 45.9471896,23.300327 46.0429539,22.91727 C46.1387181,22.5342129 46.3781288,22.3426843 46.7611859,22.3426843 C46.7611859,22.4384486 46.7252743,22.7377119 46.6534511,23.2404744 C46.5816279,23.7432368 46.5217752,23.994618 46.4738931,23.994618 L46.4738931,23.994618 Z M26.435219,23.994618 C26.435219,23.8988537 26.5788655,23.635502 26.8661583,23.2045628 C27.1534511,22.7736235 27.3449796,22.5581539 27.4407439,22.5581539 C27.5365082,22.5581539 27.6083314,22.6180066 27.6562135,22.7377119 C27.7040957,22.8574173 27.7280367,22.941211 27.7280367,22.9890932 C27.7280367,23.4200324 27.6681841,23.6953547 27.5484787,23.81506 C27.4287734,23.9347654 27.0576868,23.994618 26.435219,23.994618 Z M47.0484787,23.2045628 C46.9048323,23.2045628 46.8330091,23.1087985 46.8330091,22.91727 C46.8330091,22.6778593 46.9048323,22.5581539 47.0484787,22.5581539 C47.1921251,22.5581539 47.2639483,22.6778593 47.2639483,22.91727 C47.2639483,23.1087985 47.1921251,23.2045628 47.0484787,23.2045628 Z M7.8330091,23.4200324 C7.6893627,23.4200324 7.61753949,23.3242681 7.61753949,23.1327396 C7.61753949,22.941211 7.6893627,22.8454468 7.8330091,22.8454468 C7.97665551,22.8454468 8.04847872,22.941211 8.04847872,23.1327396 C8.04847872,23.1601008 8.04701294,23.1855076 8.04408138,23.2089601 L8.04204225,23.2185517 L8.01476578,23.2280152 C7.97079239,23.2514677 7.94001102,23.2925096 7.92242166,23.3511407 L7.91104225,23.4075517 L7.89017451,23.4141693 L7.89017451,23.4141693 L7.8330091,23.4200324 Z M8.40759474,24.4973805 C8.31183047,24.4973805 8.20409566,24.3417635 8.08439032,24.0305296 C7.96468498,23.7192957 7.90483231,23.5397377 7.90483231,23.4918556 C7.90483231,23.4644944 7.90629809,23.4390875 7.90922965,23.415635 L7.91104225,23.4075517 L7.93854524,23.3965799 C7.98251863,23.3731274 8.01330001,23.3320856 8.03088936,23.2734544 L8.04204225,23.2185517 L8.06313651,23.2104259 L8.06313651,23.2104259 L8.12030192,23.2045628 C8.26394833,23.2045628 8.33577154,23.300327 8.33577154,23.4918556 C8.33577154,23.5397377 8.37168314,23.7192957 8.44350634,24.0305296 C8.51532955,24.3417635 8.50335901,24.4973805 8.40759474,24.4973805 Z M10.2009304,24.311089 C10.1964414,24.2617106 10.185219,24.1921318 10.1672632,24.1023528 C10.1433222,23.9826475 10.0355874,23.9227948 9.84405883,23.9227948 L9.84405883,23.9227948 L9.55676601,23.7073252 L9.84405883,23.4200324 C10.0355874,23.4679145 10.1433222,23.6115609 10.1672632,23.8509716 C10.1912043,24.0903823 10.2031749,24.2579698 10.2031749,24.353734 L10.2030423,24.3475517 L10.2009304,24.311089 Z M29.0208544,24.9283197 C29.0208544,24.688909 29.056766,24.3776751 29.1285892,23.994618 C29.2004124,23.6115609 29.3081472,23.4200324 29.4517936,23.4200324 C29.7390865,23.4200324 29.9186445,23.455944 29.9904677,23.5277672 C30.0622909,23.5995904 30.0982025,23.7312663 30.0982025,23.9227948 C30.0982025,24.5931447 29.7390865,24.9283197 29.0208544,24.9283197 Z M31.9656058,23.7791484 C31.9177237,23.7791484 31.8459004,23.7552073 31.7501362,23.7073252 C31.6543719,23.6594431 31.5586076,23.635502 31.4628434,23.635502 L31.4660423,23.6355517 L31.498755,23.5995904 C31.6013595,23.4969858 31.7655269,23.4735333 31.9912569,23.529233 L32.1092522,23.5636788 C32.1092522,23.7073252 32.0613701,23.7791484 31.9656058,23.7791484 Z M11.6396389,25.0001429 C11.6396389,24.9043786 11.7832853,24.6410269 12.0705782,24.2100876 C12.357871,23.7791484 12.5493995,23.5636788 12.6451638,23.5636788 C12.7409281,23.5636788 12.8127513,23.6235315 12.8606334,23.7432368 C12.9085156,23.8629421 12.9324566,23.9467359 12.9324566,23.994618 C12.9324566,24.4255572 12.8726039,24.7008795 12.7528986,24.8205849 C12.6331933,24.9402902 12.2621067,25.0001429 11.6396389,25.0001429 Z M16.5236168,24.2819108 C16.3799704,24.2819108 16.3081472,24.1861466 16.3081472,23.994618 C16.3081472,23.8030895 16.3799704,23.7073252 16.5236168,23.7073252 C16.6672632,23.7073252 16.7390865,23.8030895 16.7390865,23.994618 C16.7390865,24.1861466 16.6672632,24.2819108 16.5236168,24.2819108 Z M5.96560579,25.6465517 C5.86984152,25.6465517 5.73816564,25.4310821 5.57057817,25.0001429 C5.40299069,24.5692037 5.31919695,24.3058519 5.31919695,24.2100876 C5.31919695,24.0185591 5.39102015,23.9227948 5.53466656,23.9227948 C5.63043084,23.9227948 5.82195938,23.9826475 6.1092522,24.1023528 C6.39654502,24.2220582 6.54019142,24.329793 6.54019142,24.4255572 C6.54019142,24.5213215 6.46836822,24.7487617 6.32472181,25.1078777 C6.1810754,25.4669937 6.06137006,25.6465517 5.96560579,25.6465517 Z M31.1750423,24.3475517 L31.1800395,24.2774219 L31.1800395,24.2774219 L31.1900423,24.2125517 L31.2327159,24.2166836 C31.3206627,24.2386703 31.371965,24.3156238 31.3866228,24.4475439 L31.3910202,24.5332921 C31.3910202,24.7487617 31.3191969,24.8564965 31.1755505,24.8564965 C31.0319041,24.8564965 30.9600809,24.7607322 30.9600809,24.5692037 C30.9600809,24.329793 31.0319041,24.2100876 31.1755505,24.2100876 L31.1755505,24.2100876 L31.1750423,24.3475517 Z M13.9379815,24.8564965 C13.8900993,24.8086143 13.8063056,24.7487617 13.6866003,24.6769385 C13.5668949,24.6051153 13.5309833,24.4973805 13.5788655,24.353734 L13.5788655,24.353734 L13.5788655,24.2100876 C13.7225119,24.2100876 13.8302467,24.2819108 13.9020699,24.4255572 C13.9738931,24.5692037 14.0098047,24.6649679 14.0098047,24.7128501 C13.9619225,24.7607322 13.9379815,24.8086143 13.9379815,24.8564965 Z M27.1534511,25.0719661 C27.0098047,25.0719661 26.9379815,24.9762018 26.9379815,24.7846733 C26.9379815,24.5931447 27.0098047,24.4973805 27.1534511,24.4973805 C27.2970975,24.4973805 27.3689207,24.5931447 27.3689207,24.7846733 C27.3689207,24.9762018 27.2970975,25.0719661 27.1534511,25.0719661 Z M4.67278811,26.2211374 L4.24184888,24.5692037 L4.96008093,25.8620213 L4.67278811,26.2211374 Z M6.1451638,28.9504191 C5.83392991,29.1898298 5.34313802,29.1898298 4.67278811,28.9504191 C4.76855238,28.8067727 4.92416933,28.5314504 5.13963894,28.1244523 C5.35510855,27.7174541 5.5825487,27.513955 5.82195938,27.513955 C6.34866288,28.2321871 6.45639769,28.7110084 6.1451638,28.9504191 Z M28.9490312,29.8841208 L28.5899152,29.8841208 L28.5899152,29.3095351 C28.8293259,29.4531816 28.9490312,29.6447101 28.9490312,29.8841208 L28.9490312,29.8841208 Z M22.8440588,38.5747285 C22.7004124,38.5747285 22.6285892,38.4789642 22.6285892,38.2874357 C22.6285892,38.0959072 22.7004124,38.0001429 22.8440588,38.0001429 C22.9877052,38.0001429 23.0595284,38.0959072 23.0595284,38.2874357 C23.0595284,38.4789642 22.9877052,38.5747285 22.8440588,38.5747285 Z M23.1313516,47.4089827 L23.1313516,46.7625738 L23.7059373,46.7625738 C23.7059373,46.8583381 23.6580551,46.990014 23.5622909,47.1576014 C23.4665266,47.3251889 23.3228802,47.4089827 23.1313516,47.4089827 L23.1313516,47.4089827 Z M28.3026224,47.7680987 C28.158976,47.7680987 28.0871528,47.6962755 28.0871528,47.5526291 C28.0871528,47.3611005 28.158976,47.2653363 28.3026224,47.2653363 C28.4462688,47.2653363 28.518092,47.3611005 28.518092,47.5526291 C28.518092,47.6962755 28.4462688,47.7680987 28.3026224,47.7680987 Z M21.6948876,50.0664412 C21.5512411,50.0664412 21.4794179,49.970677 21.4794179,49.7791484 C21.4794179,49.5876199 21.5512411,49.4918556 21.6948876,49.4918556 C21.838534,49.4918556 21.9103572,49.5876199 21.9103572,49.7791484 C21.9103572,49.970677 21.838534,50.0664412 21.6948876,50.0664412 Z M21.0484787,52.3647838 C21.0484787,51.8380803 21.2280367,51.4669937 21.5871528,51.2515241 C21.9462688,51.0360545 22.3412964,50.9283197 22.7722356,50.9283197 C22.7722356,51.407141 22.5926776,51.7662571 22.2335616,52.0056677 C21.8744456,52.2450784 21.4794179,52.3647838 21.0484787,52.3647838 Z" id="T"></path>
                    <polygon id="Path" points="66.1915088 40.5342365 74.2066065 33.0869335 76.5372378 33.0869335 76.5372378 53.1975493 71.335951 53.1975493 71.335951 42.8814409 66.1915088 47.6917611 61.0186442 42.9104187 61.0186442 53.1975493 55.8173574 53.1975493 55.8173574 33.0869335 58.1479887 33.0869335"></polygon>
                    <path d="M89.9525788,33.0869335 C95.4096666,33.0869335 99.8151282,37.6074754 99.8151282,43.1712192 C99.8151282,48.7349631 95.4096666,53.1975493 89.9525788,53.1975493 C84.4954909,53.1975493 80.1184517,48.7059852 80.1184517,43.1712192 C80.1184517,37.6364532 84.5239133,33.0869335 89.9525788,33.0869335 Z M89.9525788,38.360899 C87.3661465,38.360899 85.2628939,40.5052586 85.2628939,43.1712192 C85.2628939,45.808202 87.3661465,47.9815394 89.9525788,47.9815394 C92.5674334,47.9815394 94.670686,45.808202 94.670686,43.1712192 C94.670686,40.5052586 92.5674334,38.360899 89.9525788,38.360899 Z" id="Shape"></path>
                </g>
            </g>
        </g>
    </g>
</svg>