<?xml version="1.0" encoding="utf-8"?>
<svg version="1.1" id="Livello_1" xmlns="http://www.w3.org/2000/svg" xmlns:xlink="http://www.w3.org/1999/xlink" x="0px" y="0px"
	 viewBox="0 0 25 25" style="enable-background:new 0 0 25 25;" xml:space="preserve">
<path d="M22.7,1.6h-5.9l-0.5-0.9c-0.2-0.4-0.6-0.6-1-0.6H9.7c-0.4,0-0.8,0.3-1,0.6L8.2,1.6H2.3c-0.4,0-0.8,0.3-0.8,0.8v1.6
	c0,0.4,0.3,0.8,0.8,0.8h20.3c0.4,0,0.8-0.3,0.8-0.8V2.3C23.4,1.9,23.1,1.6,22.7,1.6z M4.2,22.8C4.2,24,5.3,25,6.5,25h12
	c1.2,0,2.3-1,2.3-2.2l1-16.6H3.1L4.2,22.8z"/>
</svg>
